<?xml version="1.0" standalone="no"?><!DOCTYPE svg PUBLIC "-//W3C//DTD SVG 1.1//EN" "http://www.w3.org/Graphics/SVG/1.1/DTD/svg11.dtd"><svg t="1504939982266" class="icon" style="" viewBox="0 0 1024 1024" version="1.1" xmlns="http://www.w3.org/2000/svg" p-id="1115" xmlns:xlink="http://www.w3.org/1999/xlink" width="200" height="200"><defs><style type="text/css"></style></defs><path d="M171.334 806.342h-10.209c-38.028 0-76.060 0.037-114.089-0.017-18.426-0.025-25.161-6.681-25.166-24.838-0.029-78.281-0.109-156.56 0.021-234.841 0.105-63.031 47.524-111.331 111.281-113.435 12.799-0.421 25.627-0.061 39.52-0.061v-12.511c-0.001-99.571-0.015-199.139 0.003-298.711 0.004-39.693 22.64-62.307 62.498-62.318 128.309-0.035 256.615-0.225 384.925 0.121 40.409 0.109 75.536 14.677 104.465 42.714 28.125 27.258 55.939 54.839 83.491 82.667 28.102 28.378 42.503 62.913 43.090 102.519 0.661 44.533 0.153 89.087 0.153 133.631v11.822c12.939 0 25.057-0.202 37.171 0.036 53.914 1.053 98.467 35.557 110.359 86.036 2.304 9.773 3.125 20.086 3.157 30.157 0.252 77.298 0.16 154.594 0.127 231.892-0.005 18.261-6.819 25.090-25.060 25.12-38.028 0.061-76.060 0.019-114.089 0.019h-11.67c0 30.306-0.025 59.682 0.014 89.063 0.018 13.741-2.691 26.629-11.364 37.804-12.178 15.684-28.336 22.621-48.181 22.581-75.727-0.149-151.454-0.059-227.18-0.059-109.79 0-219.579 0.003-329.369-0.002-39.987-0.002-62.485-22.403-62.544-62.188-0.039-28.166-0.103-56.332-0.194-84.499-0.003-0.567-0.473-1.14-1.162-2.699v0zM775.51 283.484h-11.113c-26.458-0.001-52.916-0.021-79.374 0.003-20.085 0.019-36.677-7.099-48.91-23.262-8.532-11.274-10.979-24.241-10.962-37.95 0.037-29.061 0.014-58.125 0.014-87.617h-376.491v372.322h526.838c-0.001-74.694-0.001-148.602-0.001-223.499v0zM775.526 732.341h-526.714v148.334h526.714v-148.334zM888.974 507.589c-20.622 0.003-37.809 17.218-37.633 37.694 0.172 20.076 17.070 36.929 37.246 37.153 20.501 0.228 38.076-16.9 38.212-37.243 0.133-20.439-17.137-37.61-37.823-37.605v0z" p-id="1116"></path></svg>